<svg viewBox="0 0 400 300" fill="none" xmlns="http://www.w3.org/2000/svg"><mask id="a" style="mask-type:alpha" maskUnits="userSpaceOnUse" x="63" y="32" width="275" height="236"><path d="M337.3 32H63v235.7h274.3V32Z" fill="#fff"/></mask><g mask="url(#a)"><path fill-rule="evenodd" clip-rule="evenodd" d="M316.2 242.3h8.9V69.7h-8.9v172.6Z" fill="#C7DEFF"/><path d="M319.4 69.8h5.4v172M256.5 69.8H316v172M72.5 241.8v-172h59.4" stroke="#071F4D"/><path fill-rule="evenodd" clip-rule="evenodd" d="m82.9 216 27.5-19.9V99.4l-27.5-20V216ZM305.8 78.7l-27.5 20v96.7l27.5 19.9V78.7Z" fill="#C7DEFF"/><path d="M251.8 78.9h54v162.9M82.8 241.8V78.9h55.3" stroke="#071F4D"/><path fill-rule="evenodd" clip-rule="evenodd" d="M260.8 223H127.7l-12 10.1h156.1l-11-10.1Z" fill="#071F4D"/><path d="M121.7 107.1v106.4l-30.3 22M299.3 237l-32.5-23.5V107.1" stroke="#071F4D"/><path fill-rule="evenodd" clip-rule="evenodd" d="M285.4 140.5c-7.46 0-13.5 6.04-13.5 13.5s6.04 13.5 13.5 13.5 13.5-6.04 13.5-13.5-6.04-13.5-13.5-13.5Z" fill="#071F4D"/><path d="M285.4 140.5c-7.46 0-13.5 6.04-13.5 13.5s6.04 13.5 13.5 13.5 13.5-6.04 13.5-13.5-6.04-13.5-13.5-13.5Z" stroke="#071F4D"/><path fill-rule="evenodd" clip-rule="evenodd" d="M253.2 89.4c-3.09 0-5.6 2.51-5.6 5.6s2.51 5.6 5.6 5.6 5.6-2.51 5.6-5.6-2.51-5.6-5.6-5.6Z" fill="#071F4D"/><path d="M253.2 89.4c-3.09 0-5.6 2.51-5.6 5.6s2.51 5.6 5.6 5.6 5.6-2.51 5.6-5.6-2.51-5.6-5.6-5.6Z" stroke="#071F4D"/><path fill-rule="evenodd" clip-rule="evenodd" d="M109 163.601c-5.03 0-9.1 4.07-9.1 9.1 0 5.03 4.07 9.1 9.1 9.1 5.03 0 9.1-4.07 9.1-9.1 0-5.03-4.07-9.1-9.1-9.1Z" fill="#071F4D"/><path d="M109 163.601c-5.03 0-9.1 4.07-9.1 9.1 0 5.03 4.07 9.1 9.1 9.1 5.03 0 9.1-4.07 9.1-9.1 0-5.03-4.07-9.1-9.1-9.1ZM63.5 241.8H154M224 241.8h112.8" stroke="#071F4D"/><path fill-rule="evenodd" clip-rule="evenodd" d="M169.605 139.305c-4.5-4.5-11.7-4.5-16.2 0l-2.91 2.9c-4.49 4.5-4.49 11.7 0 16.2l16.01 16 19-19-15.9-16.1Z" fill="#006EFF"/><path fill-rule="evenodd" clip-rule="evenodd" d="m191.6 245.4-17-17-17.8-17.8-13.3-13.3 75-75c5.2-5.2 13.8-5.2 19 0 5.2 5.2 5.2 13.8 0 19l-12.77 12.77c3.62-2.87 10.19-5.89 18.07.43 6 4.8 5.2 11.3 2.5 16.2-1.56 3.07-3.89 5.52-5.49 6.99 5.22-3.63 12.56-3.12 17.19 1.51 5.2 5.2 5.2 13.8 0 19l-32.4 32.4-23.9 23.9-9.1-9.1Z" fill="#006EFF"/><path d="m166.5 174.4 14.6-14.7" stroke="#071F4D"/><path fill-rule="evenodd" clip-rule="evenodd" d="m174.1 228 31.9 21.3 12.1-12.2-64-50.3-5.1 5.1 10.7 21.7 14.4 14.4Z" fill="#071F4D"/><path d="m225.3 191.8 14.4-14.5M201.9 177.1l22.3-22.3" stroke="#071F4D"/><path fill-rule="evenodd" clip-rule="evenodd" d="m210.405 242.905-55.2-55.21c-2.2-2.3-5.91-2.3-8.2 0l-14.41 14.41c-2.3 2.19-2.3 5.89 0 8.19l55.21 55.2c2.19 2.3 5.89 2.3 8.2 0l14.4-14.4c2.29-2.2 2.29-5.9 0-8.19Z" fill="#C7DEFF"/><path d="m210.405 251.1-14.4 14.4c-2.3 2.3-6 2.3-8.2 0l-55.21-55.2c-2.3-2.3-2.3-6 0-8.2l14.41-14.4" stroke="#071F4D"/><path fill-rule="evenodd" clip-rule="evenodd" d="M150.7 200.7c-2.71 0-4.9 2.19-4.9 4.9 0 2.71 2.19 4.9 4.9 4.9 2.71 0 4.9-2.19 4.9-4.9 0-2.71-2.19-4.9-4.9-4.9Z" fill="#006EFF"/><path d="M155.5 204.5c.4 1.6-.1 3.3-1.3 4.6" stroke="#071F4D"/><path fill-rule="evenodd" clip-rule="evenodd" d="M154.505 202.595c-.1-.1-.2-.3-.4-.4-1.9-1.9-5-1.9-6.9 0-1.9 1.9-1.9 5 0 6.9.4.4 1 .8 1.5 1-1.5-1.9-1.4-4.69.4-6.5 1.5-1.5 3.6-1.8 5.4-1Z" fill="#071F4D"/><path fill-rule="evenodd" clip-rule="evenodd" d="M194.496 43.1c-5.3-6.7-13.4-11-22.5-11.2-16.2-.1-29.4 12.8-29.6 28.8-.5 35.6 49.5 60.4 49.5 60.4s53.6-24.3 54.1-59c.2-16-12.6-29.3-28.7-29.5-9.2-.1-17.4 4-22.8 10.5Z" fill="#00E4E5"/><path d="M208.5 111.9c15.8-10.1 37.2-27.9 37.5-49.8" stroke="#071F4D"/><path fill-rule="evenodd" clip-rule="evenodd" d="m180.9 67.1-7.2 7.2L191 91.5l25.6-25.6-7.2-7.1L191 77.2l-10.1-10.1Z" fill="#fff"/><path d="M155.1 49c3.2-5 8.8-8.3 15.2-8.3M152.3 58.6c0-1.7.2-3.3.6-4.8" stroke="#fff"/></g></svg>