<svg viewBox="0 0 400 300" fill="none" xmlns="http://www.w3.org/2000/svg"><path d="M76 244s76.173-40.297 43.415-72.992c-20.455-20.423-37.525-50.679-39.25-78.82C78.551 65.877 102.283 44.894 130.128 45c21.348.073 38.008 10.456 51.597 24.944 11.34 12.09 31.082 51.423 53.524 45.654 4.828-1.24 8.27-5.056 12.096-8.064 17.554-13.804 25.444 9.507 25.643 21.936.231 14.248-2.919 28.607-6.346 42.406-2.033 8.191-17.836 72.124-23.537 72.124H76Z" fill="#E9F3FD"/><g clip-path="url(#a)"><path fill-rule="evenodd" clip-rule="evenodd" d="M75.459 225.723c-7.805 4.722 6.207 17.863 6.207 17.863l-12.432 8.459c-2.518-1.191-4.244-2.555-5.416-3.934l-5.054 5.682c-4.402-.195-9.027-1.66-11.154-5.815-.672-1.317-.728-3.033-.784-4.723-.072-2.207-.142-4.369-1.582-5.538-1.169-.948-2.865-1.343-4.311-1.603-.75-.132-5.08-.88-5.651-.132 2.916-3.81-2.247-1.392-2.247-1.392-1.72-.583-2.452-3.918-3.015-6.477-.224-1.023-.422-1.922-.644-2.473-.486-1.212-4.955-9.401-6.376-8.882 6.142-2.241 12.752-.696 17.987 2.995 2.239 1.574 3.69 3.734 4.935 6.126.129.249.365.837.658 1.565.79 1.971 1.994 4.968 2.606 5.047.784.103 7.452 3.833 12.703 6.825.356-1.856-1.725-4.576-1.725-4.576-6.635-6.017-1.038-11.731-1.038-11.731 2.418-2.464 1.02-6.832-.78-9.136-.676-.866-1.76-1.519-2.855-2.178-1.816-1.093-3.663-2.205-3.736-4.343-.039-1.184.597-2.203 1.24-3.234.342-.548.686-1.099.931-1.68 1.14-2.698-.174-5.625-2.194-7.506a25.42 25.42 0 0 0-1.312-1.109c-1.294-1.046-2.593-2.097-3.07-3.648-.641-2.091.587-4.426 2.426-5.613 1.839-1.187 4.132-1.433 6.319-1.342 3.906.158 7.874 1.366 10.793 3.963 4.179 3.721 5.605 9.734 5.36 15.323-.184 4.181-.314 7.165 2.77 10.237.356.356.733.705 1.11 1.054 1.918 1.778 3.864 3.582 3.486 6.499-.299 2.29-2.252 4.277-4.155 5.427Z" fill="#C7E5FA"/><mask id="b" style="mask-type:alpha" maskUnits="userSpaceOnUse" x="23" y="183" width="59" height="71"><path fill-rule="evenodd" clip-rule="evenodd" d="M75.459 225.723c-7.805 4.722 6.207 17.863 6.207 17.863l-12.432 8.459c-2.518-1.191-4.244-2.555-5.416-3.934l-5.054 5.682c-4.402-.195-9.027-1.66-11.154-5.815-.672-1.317-.728-3.033-.784-4.723-.072-2.207-.142-4.369-1.582-5.538-1.169-.948-2.865-1.343-4.311-1.603-.75-.132-5.08-.88-5.651-.132 2.916-3.81-2.247-1.392-2.247-1.392-1.72-.583-2.452-3.918-3.015-6.477-.224-1.023-.422-1.922-.644-2.473-.486-1.212-4.955-9.401-6.376-8.882 6.142-2.241 12.752-.696 17.987 2.995 2.239 1.574 3.69 3.734 4.935 6.126.129.249.365.837.658 1.565.79 1.971 1.994 4.968 2.606 5.047.784.103 7.452 3.833 12.703 6.825.356-1.856-1.725-4.576-1.725-4.576-6.635-6.017-1.038-11.731-1.038-11.731 2.418-2.464 1.02-6.832-.78-9.136-.676-.866-1.76-1.519-2.855-2.178-1.816-1.093-3.663-2.205-3.736-4.343-.039-1.184.597-2.203 1.24-3.234.342-.548.686-1.099.931-1.68 1.14-2.698-.174-5.625-2.194-7.506a25.42 25.42 0 0 0-1.312-1.109c-1.294-1.046-2.593-2.097-3.07-3.648-.641-2.091.587-4.426 2.426-5.613 1.839-1.187 4.132-1.433 6.319-1.342 3.906.158 7.874 1.366 10.793 3.963 4.179 3.721 5.605 9.734 5.36 15.323-.184 4.181-.314 7.165 2.77 10.237.356.356.733.705 1.11 1.054 1.918 1.778 3.864 3.582 3.486 6.499-.299 2.29-2.252 4.277-4.155 5.427Z" fill="#C7E5FA"/></mask><g mask="url(#b)" stroke="#fff" stroke-width=".195" stroke-miterlimit="10"><path d="M48.833 180.807c.852 3.316 3.075 5.425 5.763 7.355 1.693 1.215 3.787 2.283 5.033 4.01 1.8 2.493.58 4.794.842 7.633.148 1.581.714 3.181 1.87 4.274 4.674 4.415 7.271 7.95 6.578 14.723-.992 9.55-1.571 20.478 7.482 26.722M23.018 216.758a23.17 23.17 0 0 1 14.84 10.168c1.498 2.361 1.979 5.308 4.316 7.035 2.39 1.753 5.545 2.078 8.243 3.151 4.963 1.955 8.34 6.939 10.043 11.837"/></g></g><g clip-path="url(#c)"><path fill-rule="evenodd" clip-rule="evenodd" d="M304.226 230.208c6.477 3.911-5.148 14.819-5.148 14.819l10.326 7.023c8.425-3.987 6.158-10.313 6.158-10.313-.553-1.533 1.364-4.041 1.364-4.041 5.503-4.982.862-9.734.862-9.734-1.997-2.044-.826-5.664.654-7.578.558-.722 1.456-1.262 2.365-1.808 1.501-.903 3.029-1.822 3.089-3.602.032-.985-.496-1.832-1.029-2.687-.283-.454-.567-.91-.771-1.391-.948-2.243.141-4.674 1.818-6.233.348-.323.726-.629 1.105-.935 1.069-.862 2.14-1.727 2.531-3.01.53-1.737-.491-3.669-2.015-4.656-1.525-.987-3.423-1.19-5.241-1.117-3.241.135-6.534 1.132-8.955 3.291-3.464 3.088-4.649 8.074-4.446 12.712v.006c.151 3.464.258 5.938-2.298 8.487-.296.294-.606.582-.918.87-1.592 1.475-3.208 2.973-2.895 5.397.247 1.903 1.867 3.547 3.444 4.5Zm27.864 1.247c-1.298.55-16.881 16.502-16.881 16.502l13.061 8.461c4.522-1.475 8.924-4.332 9.931-9.279.32-1.567-.118-3.37-.549-5.146-.563-2.317-1.115-4.587.046-6.219.942-1.325 2.591-2.231 4.022-2.914l.001-.001c.749-.354 5.036-2.386 5.845-1.773-4.137-3.122 1.935-2.098 1.935-2.098 1.613-1.1 1.416-4.773 1.264-7.598-.061-1.137-.115-2.136-.04-2.775.155-1.402 2.438-11.219 4.067-11.09-7.041-.563-13.474 2.956-17.858 8.311-1.87 2.273-2.753 4.935-3.358 7.791-.062.296-.138.975-.231 1.817-.254 2.28-.64 5.751-1.255 6.011Z" fill="#C7E5FA"/><mask id="d" style="mask-type:alpha" maskUnits="userSpaceOnUse" x="299" y="194" width="56" height="63"><path fill-rule="evenodd" clip-rule="evenodd" d="M304.226 230.208c6.477 3.911-5.148 14.819-5.148 14.819l10.326 7.023c8.425-3.987 6.158-10.313 6.158-10.313-.553-1.533 1.364-4.041 1.364-4.041 5.503-4.982.862-9.734.862-9.734-1.997-2.044-.826-5.664.654-7.578.558-.722 1.456-1.262 2.365-1.808 1.501-.903 3.029-1.822 3.089-3.602.032-.985-.496-1.832-1.029-2.687-.283-.454-.567-.91-.771-1.391-.948-2.243.141-4.674 1.818-6.233.348-.323.726-.629 1.105-.935 1.069-.862 2.14-1.727 2.531-3.01.53-1.737-.491-3.669-2.015-4.656-1.525-.987-3.423-1.19-5.241-1.117-3.241.135-6.534 1.132-8.955 3.291-3.464 3.088-4.649 8.074-4.446 12.712v.006c.151 3.464.258 5.938-2.298 8.487-.296.294-.606.582-.918.87-1.592 1.475-3.208 2.973-2.895 5.397.247 1.903 1.867 3.547 3.444 4.5Zm27.864 1.247c-1.298.55-16.881 16.502-16.881 16.502l13.061 8.461c4.522-1.475 8.924-4.332 9.931-9.279.32-1.567-.118-3.37-.549-5.146-.563-2.317-1.115-4.587.046-6.219.942-1.325 2.591-2.231 4.022-2.914l.001-.001c.749-.354 5.036-2.386 5.845-1.773-4.137-3.122 1.935-2.098 1.935-2.098 1.613-1.1 1.416-4.773 1.264-7.598-.061-1.137-.115-2.136-.04-2.775.155-1.402 2.438-11.219 4.067-11.09-7.041-.563-13.474 2.956-17.858 8.311-1.87 2.273-2.753 4.935-3.358 7.791-.062.296-.138.975-.231 1.817-.254 2.28-.64 5.751-1.255 6.011Z" fill="#C7E5FA"/></mask><g mask="url(#d)" stroke="#fff" stroke-width=".195" stroke-miterlimit="10"><path d="M331.911 180.807c-.855 3.316-3.075 5.425-5.763 7.355-1.693 1.215-3.789 2.283-5.036 4.01-1.797 2.493-.576 4.794-.841 7.633-.146 1.581-.715 3.181-1.868 4.274-4.661 4.415-7.271 7.95-6.578 14.723.992 9.55 1.558 20.478-7.482 26.721M354.794 207.508c-5.952 3.062-10.572 8.448-12.507 14.876-.873 2.898-.52 6.092-2.452 8.57-1.981 2.514-5.171 3.774-7.672 5.662-4.599 3.472-6.672 9.637-7.03 15.226"/></g></g><path d="M155.047 47.41a1.599 1.599 0 0 1-2.731 1.132 1.6 1.6 0 1 1 2.731-1.131ZM165.136 47.41a1.605 1.605 0 0 1-1.914 1.575 1.604 1.604 0 0 1-1.169-2.184 1.598 1.598 0 0 1 1.48-.99 1.597 1.597 0 0 1 1.481.987c.08.194.122.402.122.613ZM175.223 47.41a1.599 1.599 0 0 1-2.731 1.132 1.6 1.6 0 1 1 2.731-1.131ZM185.31 47.41a1.598 1.598 0 0 1-1.911 1.57 1.601 1.601 0 1 1 1.911-1.57ZM195.403 47.41a1.597 1.597 0 0 1-.987 1.483 1.602 1.602 0 1 1 .987-1.482ZM205.486 47.41a1.602 1.602 0 0 1-2.731 1.131 1.6 1.6 0 1 1 2.731-1.13ZM155.047 57.238a1.599 1.599 0 0 1-2.731 1.131 1.6 1.6 0 1 1 2.731-1.13ZM165.136 57.238a1.605 1.605 0 0 1-1.914 1.575 1.605 1.605 0 0 1-1.26-1.259 1.598 1.598 0 0 1 1.571-1.916 1.595 1.595 0 0 1 1.481.987c.08.195.122.403.122.613ZM175.223 57.238a1.599 1.599 0 0 1-2.731 1.131 1.6 1.6 0 1 1 2.731-1.13ZM185.31 57.238a1.598 1.598 0 0 1-1.911 1.57 1.6 1.6 0 1 1 1.911-1.57ZM195.403 57.238a1.597 1.597 0 0 1-.987 1.482 1.603 1.603 0 1 1 .987-1.482ZM205.486 57.238a1.603 1.603 0 0 1-2.731 1.131 1.6 1.6 0 1 1 2.731-1.13ZM155.047 67.065a1.599 1.599 0 0 1-2.731 1.132 1.6 1.6 0 1 1 2.731-1.132ZM165.136 67.065a1.605 1.605 0 0 1-1.914 1.575 1.604 1.604 0 0 1-1.169-2.185 1.598 1.598 0 0 1 1.48-.99 1.6 1.6 0 0 1 1.603 1.6ZM175.223 67.065a1.599 1.599 0 0 1-2.731 1.132 1.6 1.6 0 1 1 2.731-1.132ZM185.31 67.065a1.598 1.598 0 0 1-1.911 1.57 1.6 1.6 0 1 1 1.911-1.57ZM195.403 67.065a1.597 1.597 0 0 1-.987 1.483 1.603 1.603 0 1 1 .987-1.483ZM205.486 67.065a1.603 1.603 0 0 1-2.731 1.131 1.6 1.6 0 1 1 2.731-1.13ZM155.047 76.895a1.599 1.599 0 0 1-2.731 1.132 1.6 1.6 0 1 1 2.731-1.132ZM165.136 76.895a1.605 1.605 0 0 1-1.914 1.575 1.604 1.604 0 0 1-1.169-2.185 1.598 1.598 0 0 1 1.48-.99 1.597 1.597 0 0 1 1.481.988c.08.194.122.402.122.612ZM175.223 76.895a1.599 1.599 0 0 1-2.731 1.132 1.6 1.6 0 1 1 2.731-1.132ZM185.31 76.895a1.598 1.598 0 0 1-1.911 1.57 1.601 1.601 0 1 1 1.911-1.57ZM195.403 76.895a1.597 1.597 0 0 1-.987 1.483 1.603 1.603 0 1 1 .987-1.483ZM205.486 76.895a1.603 1.603 0 0 1-2.731 1.131 1.6 1.6 0 1 1 2.731-1.13ZM155.047 86.723a1.599 1.599 0 0 1-2.731 1.131 1.6 1.6 0 1 1 2.731-1.131ZM165.136 86.723a1.605 1.605 0 0 1-1.914 1.574 1.604 1.604 0 0 1-1.169-2.184 1.598 1.598 0 0 1 1.48-.99 1.595 1.595 0 0 1 1.481.987c.08.194.122.403.122.613ZM175.223 86.723a1.599 1.599 0 0 1-2.731 1.131 1.6 1.6 0 1 1 2.731-1.131ZM185.31 86.723a1.6 1.6 0 1 1-.982-1.478 1.594 1.594 0 0 1 .866.866c.08.194.122.402.122.612M195.403 86.723a1.597 1.597 0 0 1-.987 1.482 1.603 1.603 0 1 1 .987-1.482ZM205.486 86.723a1.603 1.603 0 0 1-2.731 1.131 1.6 1.6 0 1 1 2.731-1.131ZM155.047 96.55a1.599 1.599 0 0 1-2.731 1.131 1.6 1.6 0 1 1 2.731-1.131ZM165.136 96.55a1.605 1.605 0 0 1-1.914 1.575 1.604 1.604 0 0 1-1.169-2.185 1.598 1.598 0 0 1 1.48-.99 1.597 1.597 0 0 1 1.481.987c.08.194.122.403.122.613ZM175.223 96.55a1.599 1.599 0 0 1-2.731 1.131 1.6 1.6 0 1 1 2.731-1.131ZM185.31 96.55a1.598 1.598 0 0 1-1.911 1.57 1.601 1.601 0 1 1 1.911-1.57ZM195.403 96.55a1.597 1.597 0 0 1-.987 1.482 1.602 1.602 0 1 1 .987-1.482ZM205.486 96.55a1.603 1.603 0 0 1-2.731 1.131 1.6 1.6 0 1 1 2.731-1.131Z" fill="#fff"/><path d="m236.693 242.129.979-1.236M237.583 242.402l.98-1.239" stroke="#fff" stroke-width=".096" stroke-miterlimit="10" stroke-linecap="round"/><path d="M329.498 128.78h-68.082a60.8 60.8 0 0 0 5.83-2c3.049-1.208 5.644-4.436 12.131-2.078 3.48.608 3.836-2.438 5.737-3.914 2.337-1.818 4.415-.696 6.301.87 1.885 1.566 4.137 3.392 6.111 2.857 1.973-.535 4.007-6.599 6.864-8.264 2.54-1.48 5.547-.958 8.934 2.436 3.386 3.395 5.923 8.09 16.174 10.09" fill="#C5E3F8"/><path d="M40 244h337" stroke="#000" stroke-width=".26" stroke-miterlimit="10"/><path d="M88.738 111.582c9.191 0 16.642-7.451 16.642-16.642 0-9.191-7.45-16.642-16.642-16.642-9.191 0-16.642 7.45-16.642 16.642 0 9.191 7.45 16.642 16.642 16.642Z" fill="#00E9EB"/><path d="m79.494 94.706 6.779 5.257 11.707-11.29" stroke="#fff" stroke-width="2.078" stroke-miterlimit="10" stroke-linecap="round"/><path d="m298.535 171.804-30.574 23.63 6.981 9.033 30.575-23.63-6.982-9.033Z" fill="#C7E5FA"/><path d="m274.614 177.199-26.062-3.339-2.616 20.421 26.062 3.338 2.616-20.42Z" fill="#C7E5FA"/><path d="m276.894 144.882-28.325 9.505 7.872 23.459 28.325-9.504-7.872-23.46ZM230.235 146.969l19.91 5.6a3.272 3.272 0 0 0 4.035-2.263l1.433-5.096a3.272 3.272 0 0 0-2.263-4.035l-19.911-5.6a3.27 3.27 0 0 0-4.034 2.264l-1.434 5.096a3.271 3.271 0 0 0 2.264 4.034Z" fill="#C7E5FA"/><path d="M246.58 158.823a9.644 9.644 0 0 0-2.176-1.133l2.896 1.66a23.548 23.548 0 0 0-.72-.519" fill="#EDCFD6"/><path d="m228.704 144.408 19.959 5.64a3.28 3.28 0 0 0 4.048-2.265l1.444-5.108a3.28 3.28 0 0 0-2.265-4.049l-19.958-5.64a3.281 3.281 0 0 0-4.049 2.265l-1.443 5.108a3.28 3.28 0 0 0 2.264 4.049Z" fill="#fff"/><path d="M226.915 137.745a.26.26 0 0 0 .171.306l12.897 3.636-1.558 5.472a.265.265 0 0 0 .026.187.261.261 0 0 0 .146.119.257.257 0 0 0 .186-.026.254.254 0 0 0 .12-.145l1.558-5.472 12.897 3.636a.259.259 0 0 0 .307-.171.259.259 0 0 0-.172-.307l-12.897-3.636 1.486-5.256c1.904.28 5.838-.364 6.171-1.216a.463.463 0 0 0-.26-.587 1.03 1.03 0 0 0-.26-.111c-1.356-.382-5.012 1.038-5.781 1.348-.688-.567-4.197-3.403-5.714-3.834a1.415 1.415 0 0 0-.366-.06c-.366 0-.444.2-.459.291-.032.174-.099.541 2.503 2.114a28.358 28.358 0 0 0 3.701 1.925l-1.486 5.254-12.897-3.636a.255.255 0 0 0-.193.02.258.258 0 0 0-.126.149Zm13.227-3.01c-1.647-.857-3.498-2.024-4.08-2.569h.028c.922.268 2.727 1.548 4.052 2.569Zm2.807.94c1.491-.548 3.771-1.262 4.644-1.016a.62.62 0 0 1 .143.06l.028.018c-.335.377-2.895.984-4.815.938Z" fill="#FA6765"/><path d="m274.689 142.954-28.325 9.505 7.872 23.459 28.325-9.505-7.872-23.459Z" fill="#367DFD"/><path d="m276.068 147.066-28.324 9.504.569 1.697 28.324-9.505-.569-1.696ZM276.822 149.312l-28.325 9.504.57 1.697 28.324-9.505-.569-1.696Z" fill="#21DFE3"/><path d="m273.235 174.993-26.062-3.339-2.616 20.42 26.062 3.339 2.616-20.42Z" fill="#fff"/><path d="m254.202 174.699-5.17-.662-.536 4.183 5.17.663.536-4.184ZM261.558 191.485l-14.526-1.861-.083.647 14.526 1.861.083-.647ZM261.714 190.266l-14.526-1.861-.083.646 14.526 1.861.083-.646ZM261.871 189.041l-14.526-1.861-.083.647 14.526 1.861.083-.647Z" fill="#FA6765"/><path d="m296.331 171.252-30.574 23.63 6.982 9.033 30.574-23.63-6.982-9.033Z" fill="#21DFE3"/><path d="m299.822 175.771-30.575 23.63 3.491 4.517 30.575-23.631-3.491-4.516Z" fill="#367DFD"/><path d="m272.924 195.793-3.22 2.489.37.479 3.22-2.489-.37-.479Z" fill="#21DFE3"/><path d="M269.76 196.766a1.664 1.664 0 1 0 .001-3.329 1.664 1.664 0 0 0-.001 3.329ZM275.67 188.461l-5.024 3.883 2.036 2.634 5.024-3.883-2.036-2.634Z" fill="#fff"/><path d="M282.125 243.962a7.471 7.471 0 1 0-3.405-14.55 7.472 7.472 0 0 0 3.405 14.55Z" fill="#367DFD"/><path d="M281.278 240.245a3.683 3.683 0 1 0-1.686-7.17 3.683 3.683 0 0 0 1.686 7.17Z" fill="#21DFE3"/><path d="M256.231 239.752a7.472 7.472 0 1 0-13.786-5.77 7.472 7.472 0 0 0 13.786 5.77Z" fill="#367DFD"/><path d="M245.669 236.889a3.681 3.681 0 0 0 4.4 3.614 3.69 3.69 0 0 0 2.895-2.892 3.685 3.685 0 0 0-6.215-3.325 3.683 3.683 0 0 0-1.08 2.603Z" fill="#21DFE3"/><path d="M211.826 176.265v3.734h14.926l13.551 47.288h50.836l.153.044 9.188-32.066h-3.895l-1.626 5.674h-11.087l1.415-5.674h15.539v-3.735h-66.883l-4.415-15.426-.558.161h-17.144Zm78.489 40.917h-10.45l1.633-6.605h10.711l-1.894 6.605Zm-12.237 0h-9.853l1.633-6.605h9.869l-1.649 6.605Zm-7.994-14.726-1.636 6.605h-9.96l.764-6.605h10.832Zm-10.648-1.517.634-5.674h11.783l-1.395 5.674h-11.022Zm8.648 9.638-1.633 6.605h-8.9l.763-6.605h9.77Zm3.795-8.121h9.853l-1.634 6.605h-9.855l1.636-6.605Zm5.835 16.242-1.202 4.854h-9.853l1.199-4.854h9.856Zm-12.84 4.854h-8.051l.561-4.854h8.688l-1.198 4.854Zm-9.791 0h-6.804l-.561-4.854h7.913l-.548 4.854Zm-7.531-6.37-.772-6.594h9.789l-.761 6.604-8.256-.01Zm-1.745 0h-4.514l-1.891-6.594h5.636l.769 6.594Zm-6.833-8.121-1.894-6.605h7.028l.764 6.605h-5.898Zm6.879-6.605h11.661l-.761 6.605h-10.128l-.772-6.605Zm-.176-1.517-.67-5.674h13.323l-.657 5.674h-11.996Zm36.429 0h-9.869l1.405-5.674h9.853l-1.389 5.674Zm12.437 1.517-1.893 6.605h-10.765l1.634-6.605h11.024Zm-6.046 21.096h-10.201l1.2-4.854h10.388l-1.387 4.854Zm-45.264 0v.369l-1.496-5.223h4.246l.559 4.854h-3.309Zm-8.22-28.287h8.259l.654 5.674h-7.287l-1.626-5.674Z" fill="#12C1CB"/><path d="M90.826 117.15c7.296 28.368 28.277 33.487 28.277 33.487l11.505-11.814-17.683-1.637-19.985-23.132-3.098-3.176s-.841-4.005-.844-4.01c-.086-.41-.982-.727-1.32-.714-1.651.067-2.14 1.67-2.21 3.07-.026.751.012 1.504.115 2.249.07.576 0 1.776.498 2.142l4.745 3.535Z" fill="#F4CFD7"/><path d="M89.665 110.699s-.229-4.168 1.675-3.402c0 0 1.613.457 0 5.235" fill="#F4CFD7"/><path d="M89.665 110.699s-.229-4.168 1.675-3.402c0 0 1.613.457 0 5.235" stroke="#000" stroke-width=".26" stroke-miterlimit="10"/><path d="m208.304 172.393 5.122 2.963c.519.307.607 1.506.742 2.078.188.727.313 1.469.374 2.218.091 1.399-.207 3.049-1.841 3.303-.335.052-1.262-.156-1.395-.556l-1.298-3.895-3.439-2.795-23.306-16.361-13.419-7.098 6.516-9.848s12.643 9.889 31.944 30.001" fill="#F4CFD7"/><path d="M209.358 178.241s-.166 3.672-1.438 3.485c0 0-1.094.016.418-4.69" fill="#F4CFD7"/><path d="M209.358 178.241s-.166 3.672-1.438 3.485c0 0-1.094.016.418-4.69" stroke="#000" stroke-width=".26" stroke-miterlimit="10"/><path d="M169.811 144.129c.426-2.709-6.212-6.004-14.827-7.359-8.615-1.355-15.944-.257-16.37 2.452-.426 2.709 6.212 6.004 14.827 7.359 8.615 1.355 15.944.257 16.37-2.452Z" fill="#EDCFD6"/><path d="M156.423 131.795c-2.379 1.039-4.132.171-4.796-1.429-.616-1.485.259-3.607 2.314-3.477a5.42 5.42 0 0 1 2.337.779c.321.412.594.859.815 1.332.442.969.657 2.21-.68 2.8" fill="#F4CFD7"/><path d="M157.155 134.137c4.452 1.974 7.617-.454 8.285-4.228.299-1.672.462-3.511-.216-5.108a5.607 5.607 0 0 0-3.275-3.231c-3.251-1.137-6.962.759-8.284 4.228v.034a6.543 6.543 0 0 0 3.503 8.311" fill="#F4CFD7"/><path d="M155.628 129.8a2.473 2.473 0 0 0-2.597-1.516c-.306.036-.288.498.018.459a1.996 1.996 0 0 1 2.13 1.193c.109.277.571.142.46-.136M155.421 127.936a.861.861 0 0 0 .543.21c.543-.065 1.075-.667 1.467-.981a12.195 12.195 0 0 1 2.514-1.621c1.197-.548 7.049-.086 7.428-2.052.55-2.872-3.872-1.379-5.423-1.922-3.251-1.137-8.217.32-8.705 5.343-.026.103.815.376.901.41.321.111.635.241.94.389.116.068.228.143.335.224Z" fill="#000"/><path d="M154.215 124.224c1.559-.519 1.486-.724 3.257-.805.636-3.576-4.675-9.573-11.856-7.653-3.249.87-4.415 4.022-4.537 4.238-2.906-1.426-6.929-1.927-9.627-.779-3.937 1.688-3.376 5.924-.083 8.342 3.607 2.646 9.29 3.293 13.827 2.386 7.196-1.436 6.64-7.739 7.287-7.723.834.018 1.449 1.327 1.732 1.986" fill="#000"/><path d="m155.385 136.789 3.983 1.106 1.582-5.209-3.984-1.107-1.581 5.21Z" fill="#F4CFD7"/><path d="M159.747 123.066a15.678 15.678 0 0 0-1.418-2.537c-2.06-3.047-6.436-7.532-13.596-5.548" stroke="#000" stroke-width=".26" stroke-miterlimit="10"/><path d="M162.327 128.55a.44.44 0 0 1-.595-.102.385.385 0 0 1-.082-.139.42.42 0 0 1-.02-.161.42.42 0 0 1 .045-.155.428.428 0 0 1 .103-.125.451.451 0 0 1 .32-.066.45.45 0 0 1 .278.17.386.386 0 0 1 .081.14.377.377 0 0 1 .019.16.382.382 0 0 1-.046.154.384.384 0 0 1-.103.124ZM163.978 131.312a8.953 8.953 0 0 0 .537-2.654c.013-.26-.407-.338-.42-.073a8.546 8.546 0 0 1-.52 2.553c-.088.241.309.418.4.174" fill="#030047"/><path d="m159.319 139.163-4.706-1.506.748-2.447 4.706 1.506-.748 2.447Z" fill="#0CC3CD"/><path d="m96.298 115.397-6.641 4.309s10.313 42.355 41.836 35.839l2.597 21.037 36.58-1.039 2.958-15.237s22.647 9.941 30.264 17.546l6.752-6.01s-13.294-19.712-35.421-30.157c0 0-24.368-9.438-42.867-4.498 0 0-19.65 4.56-36.058-21.79Z" fill="#12C1CB"/><path d="m130.608 149.074 3.477 27.503M175.109 152.527l-4.443 23.002" stroke="#000" stroke-width=".26" stroke-miterlimit="10"/><path d="M107.634 144.011s3.244 5.14 10.628 4.306M164.916 141.685s8.695 1.989 11.364 5.422" stroke="#fff" stroke-width=".26" stroke-miterlimit="10"/><path d="m207.053 227.336 12.699 12.035 3.294-2.945-9.082-16.681" fill="#F4CFD7"/><path d="m217.386 238.509 3.545 4.734 14.93-10.741s-4.698-2.429-11.271 2.519l-1.488-1.125-5.716 4.613Z" fill="#000"/><path d="m105.312 219.215-16.398 6.101 1.19 4.254 18.979-1.828" fill="#F4CFD7"/><path d="m90.74 223.573-5.812 1.096 3.054 18.122s4.249-3.145 2.704-11.227l1.664-.839-1.61-7.152Z" fill="#000"/><path d="M106.273 155.098s6.966 5.88 13.349 4.675" stroke="#000" stroke-width=".26" stroke-miterlimit="10"/><path d="M170.665 175.527c9.61 15.282 32.42 26.916 51.321 53.76l-8.222 6.389c-8.83-9.789-8.942-9.786-19.637-15.424-1.254-.663-2.521-1.299-3.797-1.951-16.907-8.492-43.34-22.553-53.346-41.735l33.681-1.039Z" fill="#2E55E4"/><path d="m93.311 220.657.88 5.235.104.634 1.018 6.064s41.169-10.518 54.83-25.145c11.027-11.808 11.167-31.52 11.167-31.52l-27.225.641c-3.246 10.352-2.462 11.336-3.477 21.081-.728 6.97-7.137 10.559-10.129 12.798-6.885 5.179-27.168 10.212-27.168 10.212Z" fill="#003FC6"/><path d="M150.143 207.445s-9.482-1.638-12.375 9.041M191.787 197.158s-1.483 9.817 11.168 10.197" stroke="#fff" stroke-width=".26" stroke-miterlimit="10"/><path d="M161.315 175.925s1.19 12.572-8.051 27.562M96.29 219.872l2.098 11.882M211.691 233.382l8.669-6.358" stroke="#000" stroke-width=".26" stroke-miterlimit="10"/><defs><clipPath id="a"><path fill="#fff" transform="translate(23 183)" d="M0 0h59v61H0z"/></clipPath><clipPath id="c"><path fill="#fff" transform="translate(299 195)" d="M0 0h56v49H0z"/></clipPath></defs></svg>